<svg xmlns="http://www.w3.org/2000/svg" width="56" height="56" viewBox="0 0 56 56" fill="none"><circle cx="28" cy="28" r="28" fill="#E3F0FF"></circle><mask id="mask0_487_17550" style="mask-type:alpha" maskUnits="userSpaceOnUse" x="0" y="0" width="56" height="56"><circle cx="28" cy="28" r="28" fill="#E3F0FF"></circle></mask><g mask="url(#mask0_487_17550)"><path d="M11.6926 13.3855L11.2002 14.6955V52.5677C11.2002 55.0669 12.5718 57.0928 14.2638 57.0928H57.3074C58.9993 57.0928 60.3709 55.0669 60.3709 52.5677V14.6955L59.8785 13.3855H11.6926Z" fill="white"></path><rect x="14.7515" y="17.21" width="23.4927" height="15.0244" rx="1.39159" fill="#E8F2FF"></rect><rect x="14.7515" y="35.7856" width="41.2488" height="10.6537" rx="1.39159" fill="#2187EE"></rect><rect x="25.4053" y="39.8833" width="33.6" height="2.18537" rx="1.09268" fill="#96CAFF"></rect><path d="M21.0296 40.5706C20.9713 40.512 20.9068 40.4601 20.837 40.4157C20.6523 40.2975 20.4376 40.2346 20.2183 40.2346C19.9139 40.2341 19.6218 40.355 19.407 40.5706L18.3646 41.6139C18.1501 41.8288 18.0295 42.12 18.0293 42.4236C18.0289 43.0573 18.5422 43.5713 19.1759 43.5717C19.4798 43.5727 19.7716 43.4523 19.9864 43.2373L20.8469 42.3768C20.8625 42.3613 20.8712 42.3402 20.8711 42.3182C20.8708 42.2729 20.8339 42.2364 20.7887 42.2367H20.7559C20.5761 42.2373 20.3979 42.2028 20.2314 42.1351C20.2007 42.1224 20.1655 42.1296 20.1421 42.1531L19.5234 42.7726C19.3312 42.9648 19.0197 42.9648 18.8276 42.7726C18.6355 42.5805 18.6355 42.269 18.8276 42.0769L19.8741 41.0312C20.0661 40.8394 20.3771 40.8394 20.569 41.0312C20.6984 41.1529 20.9002 41.1529 21.0296 41.0312C21.0853 40.9755 21.119 40.9016 21.1247 40.823C21.1307 40.7291 21.096 40.6372 21.0296 40.5706Z" fill="#96CAFF"></path><path d="M22.6102 38.9899C22.1622 38.5418 21.4357 38.5418 20.9876 38.9899L20.1279 39.8487C20.1043 39.8724 20.0975 39.9081 20.1107 39.9389C20.1238 39.9697 20.1543 39.9895 20.1878 39.9888H20.2181C20.3977 39.9885 20.5755 40.0233 20.7418 40.0913C20.7724 40.1039 20.8077 40.0968 20.8311 40.0733L21.4482 39.457C21.6403 39.2649 21.9518 39.2649 22.1439 39.457C22.3361 39.6491 22.3361 39.9606 22.1439 40.1527L21.3752 40.9206L21.3687 40.928L21.0999 41.1952C20.9079 41.3869 20.5969 41.3869 20.4049 41.1952C20.2755 41.0734 20.0737 41.0734 19.9444 41.1952C19.8883 41.2513 19.8546 41.3258 19.8493 41.405C19.8433 41.4988 19.8779 41.5908 19.9444 41.6574C20.0392 41.7526 20.1502 41.8303 20.2722 41.8868C20.2894 41.895 20.3066 41.9016 20.3238 41.909C20.341 41.9163 20.359 41.9221 20.3762 41.9286C20.3934 41.9352 20.4115 41.9409 20.4287 41.9458L20.477 41.9589C20.5098 41.9671 20.5426 41.9737 20.5762 41.9794C20.6167 41.9854 20.6574 41.9893 20.6983 41.9909H20.7557H20.7606L20.8098 41.9852C20.8278 41.9843 20.8466 41.9802 20.8679 41.9802H20.8958L20.9524 41.9721L20.9786 41.9671L21.0261 41.9573H21.0351C21.2364 41.9067 21.4202 41.8025 21.567 41.6557L22.6102 40.6125C23.0583 40.1644 23.0583 39.4379 22.6102 38.9899Z" fill="#96CAFF"></path><rect x="14.7515" y="48.0781" width="41.2488" height="10.6537" rx="1.39159" fill="#D8EBFF"></rect><rect x="25.4053" y="52.1758" width="33.6" height="2.18537" rx="1.09268" fill="#A8D3FF"></rect><path d="M21.0296 52.8633C20.9713 52.8047 20.9068 52.7528 20.837 52.7085C20.6523 52.5902 20.4376 52.5273 20.2183 52.5273C19.9139 52.5268 19.6218 52.6477 19.407 52.8633L18.3646 53.9066C18.1501 54.1215 18.0295 54.4127 18.0293 54.7163C18.0289 55.35 18.5422 55.864 19.1759 55.8644C19.4798 55.8654 19.7716 55.7451 19.9864 55.53L20.8469 54.6695C20.8625 54.654 20.8712 54.6329 20.8711 54.6109C20.8708 54.5656 20.8339 54.5291 20.7887 54.5294H20.7559C20.5761 54.53 20.3979 54.4955 20.2314 54.4278C20.2007 54.4152 20.1655 54.4223 20.1421 54.4458L19.5234 55.0654C19.3312 55.2575 19.0197 55.2575 18.8276 55.0654C18.6355 54.8732 18.6355 54.5617 18.8276 54.3696L19.8741 53.3239C20.0661 53.1322 20.3771 53.1322 20.569 53.3239C20.6984 53.4457 20.9002 53.4457 21.0296 53.3239C21.0853 53.2682 21.119 53.1943 21.1247 53.1157C21.1307 53.0219 21.096 52.9299 21.0296 52.8633Z" fill="#A8D3FF"></path><path d="M22.6102 51.2823C22.1622 50.8343 21.4357 50.8343 20.9876 51.2823L20.1279 52.1412C20.1043 52.1649 20.0975 52.2006 20.1107 52.2313C20.1238 52.2622 20.1543 52.282 20.1878 52.2813H20.2181C20.3977 52.281 20.5755 52.3158 20.7418 52.3838C20.7724 52.3964 20.8077 52.3893 20.8311 52.3657L21.4482 51.7495C21.6403 51.5573 21.9518 51.5573 22.1439 51.7495C22.3361 51.9416 22.3361 52.2531 22.1439 52.4452L21.3752 53.2131L21.3687 53.2205L21.0999 53.4876C20.9079 53.6794 20.5969 53.6794 20.4049 53.4876C20.2755 53.3659 20.0737 53.3659 19.9444 53.4876C19.8883 53.5438 19.8546 53.6183 19.8493 53.6974C19.8433 53.7913 19.8779 53.8832 19.9444 53.9498C20.0392 54.0451 20.1502 54.1228 20.2722 54.1793C20.2894 54.1875 20.3066 54.1941 20.3238 54.2014C20.341 54.2088 20.359 54.2145 20.3762 54.2211C20.3934 54.2277 20.4115 54.2334 20.4287 54.2383L20.477 54.2514C20.5098 54.2596 20.5426 54.2662 20.5762 54.2719C20.6167 54.2779 20.6574 54.2817 20.6983 54.2834H20.7557H20.7606L20.8098 54.2776C20.8278 54.2768 20.8466 54.2727 20.8679 54.2727H20.8958L20.9524 54.2645L20.9786 54.2596L21.0261 54.2498H21.0351C21.2364 54.1992 21.4202 54.095 21.567 53.9482L22.6102 52.905C23.0583 52.4569 23.0583 51.7304 22.6102 51.2823Z" fill="#A8D3FF"></path><rect x="40.7026" y="17.21" width="19.6683" height="1.36585" rx="0.682927" fill="#E8F2FF"></rect><rect x="40.7026" y="19.6685" width="16.1171" height="1.36585" rx="0.682927" fill="#E8F2FF"></rect><rect x="40.7026" y="22.127" width="16.1171" height="1.36585" rx="0.682927" fill="#E8F2FF"></rect><rect x="40.7026" y="24.5854" width="13.1122" height="1.36585" rx="0.682927" fill="#E8F2FF"></rect><rect x="40.7026" y="27.0442" width="14.7512" height="1.36585" rx="0.682927" fill="#E8F2FF"></rect><rect x="40.7026" y="29.5027" width="12.5659" height="1.36585" rx="0.682927" fill="#E8F2FF"></rect><path d="M58.5881 7.10254H14.3489C12.6099 7.10254 11.2002 8.25476 11.2002 9.67612V14.205H61.7368V9.67612C61.7368 8.25476 60.3271 7.10254 58.5881 7.10254Z" fill="#314154"></path><path d="M15.8401 11.7862C16.4748 11.7862 16.9893 11.2717 16.9893 10.637C16.9893 10.0023 16.4748 9.48779 15.8401 9.48779C15.2054 9.48779 14.6909 10.0023 14.6909 10.637C14.6909 11.2717 15.2054 11.7862 15.8401 11.7862Z" fill="#DD636E"></path><path d="M19.3748 11.7862C20.0095 11.7862 20.524 11.2717 20.524 10.637C20.524 10.0023 20.0095 9.48779 19.3748 9.48779C18.7401 9.48779 18.2256 10.0023 18.2256 10.637C18.2256 11.2717 18.7401 11.7862 19.3748 11.7862Z" fill="#FFE07D"></path><path d="M22.91 11.7862C23.5446 11.7862 24.0592 11.2717 24.0592 10.637C24.0592 10.0023 23.5446 9.48779 22.91 9.48779C22.2753 9.48779 21.7607 10.0023 21.7607 10.637C21.7607 11.2717 22.2753 11.7862 22.91 11.7862Z" fill="#86F1A7"></path></g></svg>