<svg xmlns="http://www.w3.org/2000/svg" width="56" height="56" viewBox="0 0 56 56" fill="none"><circle cx="28" cy="28" r="28" fill="#E3F0FF"></circle><mask id="mask0_487_17526" style="mask-type:alpha" maskUnits="userSpaceOnUse" x="0" y="0" width="56" height="56"><circle cx="28" cy="28" r="28" fill="#E3F0FF"></circle></mask><g mask="url(#mask0_487_17526)"><rect x="13" y="11" width="45" height="45" rx="1.875" fill="#314154"></rect><rect x="18.625" y="39.875" width="33.375" height="9.375" rx="1.875" fill="#36CE94"></rect><rect x="22.75" y="43.625" width="25.5" height="1.875" rx="0.9375" fill="#239D6E"></rect><rect x="18.625" y="28.25" width="33.375" height="9.375" rx="1.875" fill="#4E6580"></rect><rect x="22.75" y="32" width="25.5" height="1.875" rx="0.9375" fill="#768DA7"></rect><path d="M32.875 17.0756V22.005H34.1583C34.3309 22.005 34.421 21.8998 34.5561 21.7541L35.6818 20.54H36.4773C38.8188 20.54 38.8188 16.25 36.4773 16.25H33.6405C33.1827 16.25 32.875 16.5657 32.875 17.0756Z" fill="#1181E8"></path><mask id="mask1_487_17526" style="mask-type:alpha" maskUnits="userSpaceOnUse" x="32" y="16" width="7" height="7"><path d="M32.875 17.0756V22.005H34.1583C34.3309 22.005 34.421 21.8998 34.5561 21.7541L35.6818 20.54H36.4773C38.8188 20.54 38.8188 16.25 36.4773 16.25H33.6405C33.1827 16.25 32.875 16.5657 32.875 17.0756Z" fill="#11E8D2"></path></mask><g mask="url(#mask1_487_17526)"><g filter="url(#filter0_f_487_17526)"><ellipse cx="38.6684" cy="15.4649" rx="4.15764" ry="3.16485" fill="#5096FF" fill-opacity="0.94"></ellipse></g><g filter="url(#filter1_f_487_17526)"><ellipse cx="29.5882" cy="21.8268" rx="4.92312" ry="4.97797" fill="black" fill-opacity="0.13"></ellipse></g></g><path d="M34.6763 20.54H35.6744L34.7889 21.5113H33.3555L33.9709 20.88C34.0609 20.7829 34.4136 20.54 34.6763 20.54Z" fill="url(#paint0_linear_487_17526)"></path><path d="M35.1569 17.6005C34.9964 17.5085 34.8662 17.5839 34.8662 17.7689V19.1343C34.8662 19.3195 34.9964 19.3948 35.1569 19.3028L36.3503 18.6184C36.5109 18.5263 36.5109 18.377 36.3503 18.2849L35.1569 17.6005Z" fill="white"></path><path d="M18.0506 50.213L21.2268 47.038C21.3431 46.9456 21.5181 47.0338 21.5181 47.172V51.511C21.5181 51.6081 21.4393 51.6869 21.3422 51.6869C21.2964 51.6869 21.2526 51.6693 21.2275 51.6439L20.3475 50.8772L19.6298 52.5539C19.6176 52.5825 19.5946 52.6051 19.5658 52.6168C19.5517 52.6222 19.5369 52.625 19.5221 52.625C19.5064 52.625 19.4907 52.6217 19.4759 52.6154L18.7207 52.2917C18.6612 52.2664 18.6335 52.1974 18.659 52.1379L19.3537 50.5141H18.1759C18.0788 50.5141 18 50.4353 18 50.3382C18 50.3099 18.0072 50.2672 18.0506 50.213Z" fill="white"></path></g><defs><filter id="filter0_f_487_17526" x="32.2929" y="10.0822" width="12.7511" height="10.7652" filterUnits="userSpaceOnUse" color-interpolation-filters="sRGB"><feGaussianBlur stdDeviation="1.10891"></feGaussianBlur></filter><filter id="filter1_f_487_17526" x="22.4472" y="14.6311" width="14.2818" height="14.3915" filterUnits="userSpaceOnUse" color-interpolation-filters="sRGB"><feGaussianBlur stdDeviation="1.10891"></feGaussianBlur></filter><linearGradient id="paint0_linear_487_17526" x1="34.939" y1="20.5805" x2="34.4602" y2="21.367" gradientUnits="userSpaceOnUse"><stop stop-color="#004E96"></stop><stop offset="1" stop-color="#045DB0" stop-opacity="0"></stop></linearGradient></defs></svg>