<svg xmlns="http://www.w3.org/2000/svg" width="56" height="56" viewBox="0 0 56 56" fill="none"><circle cx="28" cy="28" r="28" fill="#E3F0FF"></circle><mask id="mask0_487_17600" style="mask-type:alpha" maskUnits="userSpaceOnUse" x="0" y="0" width="56" height="56"><circle cx="28" cy="28" r="28" fill="#E3F0FF"></circle></mask><g mask="url(#mask0_487_17600)"><path d="M16.31 42.2485L16.5708 42.2931L16.4699 42.0486C15.5077 39.7156 15.0199 37.2466 15.0199 34.71C15.0199 27.6764 18.8601 21.191 25.0417 17.7846V17.5103H18.2464L17.8902 17.6565C13.3643 21.9619 10.5454 28.0265 10.5454 34.7461C10.5454 37.416 10.991 39.9824 11.8113 42.3764C12.6372 42.1857 13.4956 42.0815 14.3786 42.0815C15.0139 42.0816 15.6637 42.1376 16.31 42.2485Z" fill="#6AB5FF"></path><path d="M71.3803 54.4501L62.1877 49.1427C61.6753 48.8469 61.0347 49.2167 61.0347 49.8083V51.8359H43.2417C40.5736 53.2308 37.5423 54.0212 34.3309 54.0212C31.3883 54.0212 28.5607 53.3728 25.9266 52.0944L25.6887 51.9789L25.7174 52.2418C25.7636 52.665 25.7871 53.0849 25.7871 53.4905C25.7871 54.5852 25.6289 55.643 25.3398 56.6458C28.1139 57.7729 31.1491 58.3957 34.3309 58.3957H61.0347V60.4232C61.0347 61.015 61.6753 61.3848 62.1877 61.0888L71.3803 55.7814C71.8927 55.4855 71.8927 54.7459 71.3803 54.4501Z" fill="#2187EE"></path><path d="M13.0912 34.7461C13.0912 28.0265 15.9101 21.9619 20.4359 17.6565H17.8902C13.3643 21.9619 10.5454 28.0265 10.5454 34.7461C10.5454 37.416 10.991 39.9824 11.8113 42.3764C12.6 42.1942 13.4192 42.0932 14.2604 42.0846C13.5025 39.7742 13.0912 37.3081 13.0912 34.7461Z" fill="url(#paint0_linear_487_17600)"></path><path d="M34.3311 15.3986C37.4404 15.3986 40.3799 16.1384 42.9845 17.4494C42.8941 16.8745 42.8456 16.2858 42.8456 15.6858C42.8456 14.6902 42.9746 13.7244 43.2153 12.8031C40.4702 11.7034 37.4722 11.0967 34.3311 11.0967L20.8456 11.0968V9.06936C20.8456 8.47759 20.205 8.10779 19.6926 8.40375L10.5 13.711C9.98763 14.0068 9.98763 14.7466 10.5 15.0424L19.6926 20.3498C20.205 20.6456 20.8456 20.2758 20.8456 19.6841V17.6567L25.2785 17.6566C27.9803 16.2163 31.0618 15.3986 34.3311 15.3986Z" fill="url(#paint1_linear_487_17600)"></path><path d="M52.1719 40.9317C52.1719 40.9546 52.1714 40.9773 52.1714 41H58C58 35.738 57.369 30.6896 56.2137 26C55.1685 26.3394 54.0837 26.5245 52.9692 26.5245C51.9523 26.5245 50.9599 26.3721 50 26.0871C51.3951 30.6254 52.1719 35.6489 52.1719 40.9317Z" fill="#2187EE"></path><path d="M12.9855 12.559C12.906 12.5131 12.8402 12.4555 12.7854 12.3916L10.5 13.7111C9.98763 14.0069 9.98763 14.7466 10.5 15.0425L19.6926 20.3499C20.205 20.6457 20.8456 20.2759 20.8456 19.6843V17.6569H21.8146L12.9855 12.559Z" fill="#327DC7"></path><path d="M43.239 18.6525C40.6007 17.1857 37.5637 16.3491 34.331 16.3491C24.1907 16.3491 15.9702 24.5695 15.9702 34.7099C15.9702 37.5298 16.6067 40.2008 17.7426 42.5882C21.5505 43.7657 24.5102 46.8878 25.4612 50.7887C28.0907 52.2423 31.1139 53.0706 34.331 53.0706C44.4714 53.0706 52.6917 44.8503 52.6917 34.7099C52.6917 31.7798 52.0042 29.0106 50.7835 26.5531C47.1135 25.3782 44.2475 22.393 43.239 18.6525Z" fill="#BADCFF"></path><path d="M19.304 43.2009C17.8808 40.6921 17.0669 37.7944 17.0669 34.7099C17.0669 25.1905 24.8116 17.4458 34.331 17.4458C37.8345 17.4458 41.0971 18.4959 43.8222 20.2965C43.4018 19.3489 43.1067 18.3346 42.9583 17.2733C40.3568 15.9808 37.4274 15.2524 34.331 15.2524C23.6022 15.2524 14.8735 23.9811 14.8735 34.7099C14.8735 37.3876 15.4173 39.9407 16.4001 42.2645C17.4211 42.448 18.3962 42.7646 19.304 43.2009Z" fill="#9ECEFF"></path><path d="M49.1688 25.8943C50.7087 28.4763 51.595 31.4913 51.595 34.7099C51.595 44.2293 43.8503 51.9738 34.3311 51.9738C30.872 51.9738 27.6478 50.9506 24.9438 49.1918C25.3239 50.1225 25.5837 51.1137 25.7055 52.1473C28.3066 53.4392 31.2352 54.1671 34.3309 54.1671C45.0597 54.1671 53.7882 45.4386 53.7882 34.7098C53.7882 31.9322 53.2019 29.2893 52.1486 26.8965C51.098 26.6997 50.0976 26.3588 49.1688 25.8943Z" fill="#92C6FB"></path><path d="M34.331 47.5847C41.4417 47.5847 47.206 41.8203 47.206 34.7097C47.206 27.599 41.4417 21.8347 34.331 21.8347C27.2204 21.8347 21.4561 27.599 21.4561 34.7097C21.4561 41.8203 27.2204 47.5847 34.331 47.5847Z" fill="#B9FFC8"></path><path d="M26.507 34.7097C26.507 28.4635 30.9554 23.2578 36.8565 22.0839C36.0397 21.9214 35.1955 21.8347 34.331 21.8347C27.2204 21.8347 21.4561 27.5991 21.4561 34.7097C21.4561 41.8203 27.2204 47.5847 34.331 47.5847C35.1955 47.5847 36.0397 47.498 36.8565 47.3355C30.9553 46.1616 26.507 40.9558 26.507 34.7097Z" fill="#6AA276"></path><path d="M34.331 48.6815C26.627 48.6815 20.3594 42.4139 20.3594 34.7098C20.3594 27.0057 26.627 20.738 34.331 20.738C42.0352 20.738 48.3028 27.0057 48.3028 34.7098C48.3028 42.4139 42.0352 48.6815 34.331 48.6815ZM34.331 22.9314C27.8364 22.9314 22.5528 28.2151 22.5528 34.7098C22.5528 41.2044 27.8364 46.4881 34.331 46.4881C40.8256 46.4881 46.1095 41.2044 46.1095 34.7098C46.1095 28.2151 40.8256 22.9314 34.331 22.9314Z" fill="#36CE94"></path><path d="M35.8107 33.6131H32.8516C31.9801 33.6131 31.271 32.9041 31.271 32.0324C31.271 31.1608 31.9801 30.4517 32.8516 30.4517H38.0654C38.6712 30.4517 39.1621 29.9607 39.1621 29.355C39.1621 28.7494 38.6712 28.2584 38.0654 28.2584H35.4279V26.6072C35.4279 26.0015 34.937 25.5105 34.3312 25.5105C33.7255 25.5105 33.2345 26.0015 33.2345 26.6072V28.2584H32.8516C30.7706 28.2584 29.0776 29.9514 29.0776 32.0324C29.0776 34.1135 30.7706 35.8065 32.8516 35.8065H35.8107C36.6822 35.8065 37.3914 36.5155 37.3914 37.3872C37.3914 38.2588 36.6822 38.9679 35.8107 38.9679H30.5971C29.9914 38.9679 29.5004 39.4589 29.5004 40.0646C29.5004 40.6702 29.9914 41.1613 30.5971 41.1613H33.2345V42.8123C33.2345 43.418 33.7255 43.909 34.3312 43.909C34.937 43.909 35.4279 43.418 35.4279 42.8123V41.1613H35.8107C37.8917 41.1613 39.5848 39.4683 39.5848 37.3872C39.5848 35.3061 37.8918 33.6131 35.8107 33.6131Z" fill="#4D7656"></path><path d="M54.2542 26.1442C60.0302 26.1442 64.7125 21.4618 64.7125 15.6859C64.7125 9.90989 60.0302 5.22754 54.2542 5.22754C48.4782 5.22754 43.7959 9.90989 43.7959 15.6859C43.7959 21.4618 48.4782 26.1442 54.2542 26.1442Z" fill="#B9FFC8"></path><path d="M47 15.6859C47 10.7752 52.1998 6.65689 56.7634 5.53271C55.9593 5.33458 55.1194 5.22754 54.2542 5.22754C48.4783 5.22754 43.7959 9.90996 43.7959 15.6859C43.7959 21.4619 48.4783 26.1442 54.2542 26.1442C55.1194 26.1442 55.9593 26.0371 56.7634 25.839C52.1998 24.7148 47 20.5967 47 15.6859Z" fill="#71A77D"></path><path d="M54.2541 27.2409C47.8828 27.2409 42.6992 22.0573 42.6992 15.6859C42.6992 9.31439 47.8828 4.13086 54.2541 4.13086C60.6255 4.13086 65.8091 9.31439 65.8091 15.6859C65.8091 22.0573 60.6255 27.2409 54.2541 27.2409ZM54.2541 6.32424C49.092 6.32424 44.8926 10.5238 44.8926 15.6859C44.8926 20.8479 49.0922 25.0475 54.2541 25.0475C59.416 25.0475 63.6157 20.8479 63.6157 15.6859C63.6157 10.5238 59.4161 6.32424 54.2541 6.32424Z" fill="#36CE94"></path><path d="M55.4561 14.5892H53.0524C52.458 14.5892 51.9743 14.1056 51.9743 13.511C51.9743 12.9165 52.458 12.4329 53.0524 12.4329H57.2875C57.8933 12.4329 58.3842 11.9419 58.3842 11.3362C58.3842 10.7306 57.8933 10.2395 57.2875 10.2395H55.3508V9.10426C55.3508 8.49859 54.8599 8.00757 54.2541 8.00757C53.6483 8.00757 53.1574 8.49859 53.1574 9.10426V10.2395H53.0523C51.2483 10.2395 49.7808 11.7072 49.7808 13.511C49.7808 15.3149 51.2483 16.7825 53.0523 16.7825H55.4559C56.0503 16.7825 56.5339 17.2661 56.5339 17.8607C56.5339 18.4552 56.0503 18.9388 55.4559 18.9388H51.2208C50.615 18.9388 50.1241 19.4298 50.1241 20.0355C50.1241 20.6411 50.615 21.1321 51.2208 21.1321H53.1572V22.2674C53.1572 22.8731 53.6481 23.3641 54.2539 23.3641C54.8597 23.3641 55.3506 22.8731 55.3506 22.2674V21.1321H55.4559C57.2597 21.1321 58.7273 19.6645 58.7273 17.8607C58.7273 16.0568 57.2599 14.5892 55.4561 14.5892Z" fill="#4D7656"></path><path d="M13.9667 64.7977C19.9485 64.7977 24.7977 59.9485 24.7977 53.9667C24.7977 47.9849 19.9485 43.1357 13.9667 43.1357C7.98494 43.1357 3.13574 47.9849 3.13574 53.9667C3.13574 59.9485 7.98494 64.7977 13.9667 64.7977Z" fill="#B9FFC8"></path><path d="M8.42164 53.9667C8.42164 48.8967 11.9057 44.6418 16.6099 43.4619C15.7638 43.2498 14.879 43.1357 13.9672 43.1357C7.98535 43.1357 3.13623 47.985 3.13623 53.9667C3.13623 59.9486 7.98535 64.7977 13.9672 64.7977C14.879 64.7977 15.764 64.6837 16.6099 64.4715C11.9057 63.2917 8.42164 59.0366 8.42164 53.9667Z" fill="#6AA176"></path><path d="M13.9667 65.9335C7.36824 65.9335 2 60.5653 2 53.9667C2 47.3682 7.36824 42 13.9667 42C20.5653 42 25.9335 47.3682 25.9335 53.9667C25.9335 60.5653 20.5653 65.9335 13.9667 65.9335ZM13.9667 44.2715C8.62077 44.2715 4.27153 48.6208 4.27153 53.9667C4.27153 59.3127 8.62077 63.662 13.9667 63.662C19.3127 63.662 23.662 59.3127 23.662 53.9667C23.662 48.6208 19.3127 44.2715 13.9667 44.2715Z" fill="#36CE94"></path><path d="M15.2114 52.831H12.7221C12.1065 52.831 11.6055 52.3302 11.6055 51.7145C11.6055 51.0987 12.1063 50.5979 12.7221 50.5979H17.1081C17.7353 50.5979 18.2439 50.0894 18.2439 49.4622C18.2439 48.8349 17.7353 48.3264 17.1081 48.3264H15.1025V47.1507C15.1025 46.5234 14.594 46.0149 13.9667 46.0149C13.3395 46.0149 12.8309 46.5234 12.8309 47.1507V48.3264H12.7221C10.8539 48.3264 9.33398 49.8464 9.33398 51.7145C9.33398 53.5826 10.8538 55.1025 12.7221 55.1025H15.2114C15.8269 55.1025 16.3279 55.6033 16.3279 56.2191C16.3279 56.8348 15.8271 57.3356 15.2114 57.3356H10.8255C10.1982 57.3356 9.68971 57.8441 9.68971 58.4714C9.68971 59.0986 10.1982 59.6071 10.8255 59.6071H12.8309V60.7829C12.8309 61.4101 13.3395 61.9187 13.9667 61.9187C14.594 61.9187 15.1025 61.4101 15.1025 60.7829V59.6071H15.2114C17.0795 59.6071 18.5994 58.0872 18.5994 56.2191C18.5994 54.351 17.0795 52.831 15.2114 52.831Z" fill="#4D7656"></path></g><defs><linearGradient id="paint0_linear_487_17600" x1="15.4907" y1="17.6565" x2="15.4907" y2="42.3764" gradientUnits="userSpaceOnUse"><stop stop-color="#76BAFF"></stop><stop offset="1" stop-color="#0E62B6"></stop></linearGradient><linearGradient id="paint1_linear_487_17600" x1="19.5" y1="4" x2="37.5" y2="34.5" gradientUnits="userSpaceOnUse"><stop stop-color="#59ACFF"></stop><stop offset="1" stop-color="#0962BB"></stop></linearGradient></defs></svg>